<?xml version="1.0" standalone="no"?>
<!DOCTYPE svg PUBLIC "-//W3C//DTD SVG 20010904//EN"
 "http://www.w3.org/TR/2001/REC-SVG-20010904/DTD/svg10.dtd">
<svg version="1.0" xmlns="http://www.w3.org/2000/svg"
 width="500.000000pt" height="500.000000pt" viewBox="0 0 500.000000 500.000000"
 preserveAspectRatio="xMidYMid meet">
<metadata>
Created by potrace 1.16, written by Peter Selinger 2001-2019
</metadata>
<g transform="translate(0.000000,500.000000) scale(0.100000,-0.100000)"
fill="#000000" stroke="none">
<path d="M2950 3539 c-19 -11 -96 -83 -170 -158 -184 -185 -384 -470 -501
-713 -13 -27 -27 -48 -32 -48 -16 0 -130 -60 -172 -91 -82 -59 -223 -186 -280
-252 -63 -73 -199 -174 -300 -225 -57 -28 -64 -29 -115 -20 -30 6 -107 8 -170
6 -102 -5 -129 -10 -240 -48 -163 -55 -236 -70 -345 -70 -109 0 -182 15 -342
69 -83 29 -147 43 -202 48 l-81 6 0 -94 0 -94 58 -21 c31 -12 84 -32 117 -44
81 -31 279 -39 375 -16 35 8 66 14 68 12 1 -2 -24 -22 -57 -44 -93 -62 -147
-77 -276 -77 -103 0 -168 12 -270 51 -13 5 -15 -12 -15 -135 l0 -141 588 0
587 1 -65 34 c-36 18 -97 42 -135 53 -149 43 -149 42 -10 38 89 -3 144 -9 175
-20 110 -42 244 -66 357 -66 138 0 227 17 365 69 169 65 221 74 388 68 166 -5
248 -26 387 -96 179 -89 47 -81 1276 -81 l1087 0 0 170 c0 94 -4 170 -8 170
-4 0 -12 -4 -18 -8 -5 -5 -31 -17 -59 -27 -27 -10 -117 -51 -198 -91 -199 -97
-276 -112 -427 -80 -69 15 -80 13 -80 -10 0 -8 -7 -14 -15 -14 -8 0 -15 6 -15
13 0 9 -3 8 -9 -2 -11 -18 -31 -5 -31 20 0 11 5 17 10 14 6 -3 15 -3 21 0 12
8 -223 124 -315 155 -54 19 -81 22 -153 18 -101 -6 -201 -42 -210 -78 -6 -24
-16 -25 -33 -5 -11 13 -14 13 -26 -2 -12 -16 -13 -10 -14 45 0 35 4 62 10 62
6 0 10 -12 10 -27 0 -21 3 -24 12 -15 7 7 19 12 27 12 12 0 11 -3 -2 -18 -38
-41 -7 -43 49 -3 59 42 155 71 241 71 78 0 244 -33 383 -76 60 -19 116 -28
190 -31 95 -5 113 -3 185 22 44 14 148 61 230 104 83 43 170 85 195 93 l45 15
3 53 3 53 -79 -5 c-55 -4 -116 -18 -203 -48 -162 -55 -235 -70 -344 -70 -110
0 -183 15 -345 71 l-125 44 -155 -1 c-131 0 -165 -3 -219 -21 l-64 -22 51 47
c73 67 105 143 100 230 -5 77 -25 126 -74 176 -100 103 -264 122 -414 48 -45
-22 -43 -53 4 -97 40 -37 63 -114 48 -166 -11 -44 -7 -56 29 -74 43 -23 69
-82 69 -159 0 -42 -4 -66 -12 -69 -17 -6 -118 49 -140 77 -24 29 -22 71 4 118
27 47 19 64 -37 84 -57 19 -75 46 -75 110 0 38 7 69 25 104 25 49 25 74 0 84
-19 7 -126 -78 -145 -115 -9 -16 -40 -46 -70 -66 l-53 -36 -19 23 c-12 15 -17
32 -13 44 26 91 36 145 44 239 l9 108 59 70 c105 128 130 167 153 241 13 40
28 76 34 80 55 38 368 -91 620 -256 115 -75 116 -77 125 -192 7 -90 11 -106
47 -169 l40 -69 68 -20 c56 -16 69 -17 76 -6 7 11 19 4 53 -27 77 -71 157
-100 157 -57 0 18 5 18 35 -2 33 -22 68 -10 63 21 -3 14 2 26 14 34 24 15 23
27 -8 64 l-26 31 22 8 c31 12 20 49 -36 118 -24 30 -68 87 -98 126 -68 89
-150 164 -228 209 -33 19 -71 50 -86 68 -58 70 -208 212 -289 273 -175 131
-487 303 -565 311 -32 3 -52 -1 -78 -18z m476 -1074 c27 -8 65 -28 84 -45 19
-18 27 -29 18 -26 -77 24 -141 29 -198 18 -59 -13 -62 -12 -91 12 -16 14 -31
29 -32 33 -6 23 150 29 219 8z"/>
</g>
</svg>
